<?xml version="1.0" encoding="UTF-8" standalone="no"?>
<!-- Created with Inkscape (http://www.inkscape.org/) -->

<svg
   xmlns:dc="http://purl.org/dc/elements/1.1/"
   xmlns:cc="http://creativecommons.org/ns#"
   xmlns:rdf="http://www.w3.org/1999/02/22-rdf-syntax-ns#"
   xmlns:svg="http://www.w3.org/2000/svg"
   xmlns="http://www.w3.org/2000/svg"
   xmlns:sodipodi="http://sodipodi.sourceforge.net/DTD/sodipodi-0.dtd"
   xmlns:inkscape="http://www.inkscape.org/namespaces/inkscape"
   width="48pt"
   height="48pt"
   viewBox="0 0 16.933334 16.933333"
   version="1.1"
   id="svg979"
   inkscape:version="0.92.4 (5da689c313, 2019-01-14)"
   sodipodi:docname="28 - Workplace.svg"
   inkscape:export-filename="E:\TR Design Studio Creative\Project Design\TR Creative Design\Icon Design\Project Hiring\Icon Icons\003 - Business And Finance\Line\Export\27 - Money Protection.png"
   inkscape:export-xdpi="768"
   inkscape:export-ydpi="768">
  <defs
     id="defs973" />
  <sodipodi:namedview
     id="base"
     pagecolor="#ffffff"
     bordercolor="#666666"
     borderopacity="1.0"
     inkscape:pageopacity="0.0"
     inkscape:pageshadow="2"
     inkscape:zoom="8.546875"
     inkscape:cx="32"
     inkscape:cy="32"
     inkscape:document-units="pt"
     inkscape:current-layer="layer1"
     showgrid="false"
     units="pt"
     inkscape:window-width="1366"
     inkscape:window-height="716"
     inkscape:window-x="-8"
     inkscape:window-y="-8"
     inkscape:window-maximized="1"
     inkscape:snap-bbox="true"
     inkscape:bbox-nodes="true"
     inkscape:snap-nodes="false"
     showguides="false">
    <inkscape:grid
       type="xygrid"
       id="grid1526" />
    <sodipodi:guide
       position="0.97013909,15.963209"
       orientation="56.666615,0"
       id="guide1528"
       inkscape:locked="false" />
    <sodipodi:guide
       position="0.97013909,0.97016731"
       orientation="0,56.666667"
       id="guide1530"
       inkscape:locked="false" />
    <sodipodi:guide
       position="15.963195,0.97016731"
       orientation="-56.666615,0"
       id="guide1532"
       inkscape:locked="false" />
    <sodipodi:guide
       position="15.963195,15.963209"
       orientation="0,-56.666667"
       id="guide1534"
       inkscape:locked="false" />
  </sodipodi:namedview>
  <metadata
     id="metadata976">
    <rdf:RDF>
      <cc:Work
         rdf:about="">
        <dc:format>image/svg+xml</dc:format>
        <dc:type
           rdf:resource="http://purl.org/dc/dcmitype/StillImage" />
        <dc:title></dc:title>
      </cc:Work>
    </rdf:RDF>
  </metadata>
  <g
     inkscape:label="Layer 1"
     inkscape:groupmode="layer"
     id="layer1"
     transform="translate(0,-280.06668)">
    <path
       style="color:#000000;font-style:normal;font-variant:normal;font-weight:normal;font-stretch:normal;font-size:medium;line-height:normal;font-family:sans-serif;font-variant-ligatures:normal;font-variant-position:normal;font-variant-caps:normal;font-variant-numeric:normal;font-variant-alternates:normal;font-feature-settings:normal;text-indent:0;text-align:start;text-decoration:none;text-decoration-line:none;text-decoration-style:solid;text-decoration-color:#000000;letter-spacing:normal;word-spacing:normal;text-transform:none;writing-mode:lr-tb;direction:ltr;text-orientation:mixed;dominant-baseline:auto;baseline-shift:baseline;text-anchor:start;white-space:normal;shape-padding:0;clip-rule:nonzero;display:inline;overflow:visible;visibility:visible;opacity:1;isolation:auto;mix-blend-mode:normal;color-interpolation:sRGB;color-interpolation-filters:linearRGB;solid-color:#000000;solid-opacity:1;vector-effect:none;fill:#000000;fill-opacity:1;fill-rule:nonzero;stroke:none;stroke-width:0.529167;stroke-linecap:round;stroke-linejoin:round;stroke-miterlimit:1.5;stroke-dasharray:none;stroke-dashoffset:0;stroke-opacity:1;paint-order:markers fill stroke;color-rendering:auto;image-rendering:auto;shape-rendering:auto;text-rendering:auto;enable-background:accumulate"
       d="m 1.6302275,281.0443 c -0.355107,0 -0.65116317,0.29606 -0.65116317,0.65117 v 2.60528 c 0,0.35511 0.29605617,0.65117 0.65116317,0.65117 h 2.605288 c 0.1042751,0 0.174852,-0.0401 0.2308446,-0.0961 l 0.651163,-0.65116 c 0.0684,-0.0684 0.096057,-0.14991 0.096057,-0.23103 v -2.27842 c 0,-0.35511 -0.2960561,-0.65117 -0.6511631,-0.65117 z m 12.2093105,0 c -1.164938,0 -2.115011,0.95261 -2.115011,2.11756 0,1.16493 0.950073,2.11501 2.115011,2.11501 1.164933,0 2.117549,-0.95008 2.117549,-2.11501 0,-1.16495 -0.952616,-2.11756 -2.117549,-2.11756 z m -12.2093105,0.65117 h 2.9321413 v 1.95411 H 4.2355155 c -0.010374,-6.4e-4 -0.020779,-6.4e-4 -0.031159,0 -0.1665489,0.0167 -0.293315,0.15694 -0.2931506,0.32433 v 0.32684 h -2.280978 z m 12.2093105,0 c 0.813019,0 1.465752,0.65337 1.465752,1.46639 0,0.81302 -0.652733,1.4632 -1.465752,1.4632 -0.813023,0 -1.463848,-0.65018 -1.463848,-1.4632 0,-0.81302 0.650825,-1.46639 1.463848,-1.46639 z m -10.9069843,0.32431 c -0.4345339,0 -0.4345339,0.65179 0,0.65179 H 3.259407 c 0.4345338,0 0.4345338,-0.65179 0,-0.65179 z m 10.8999873,0.005 c -0.179064,0.004 -0.321968,0.15031 -0.319858,0.32939 v 0.9971 l -0.353562,0.41333 c -0.282341,0.33194 0.21557,0.75545 0.497911,0.42351 l 0.429869,-0.50745 c 0.04989,-0.0591 0.07716,-0.13384 0.07695,-0.21112 v -1.11537 c 0.0023,-0.18356 -0.147762,-0.33261 -0.331305,-0.32939 z m -7.9697536,2.92705 c -0.7158496,0 -1.3004186,0.58711 -1.3004186,1.30296 H 3.259407 c -0.011223,-6.5e-4 -0.022475,-6.5e-4 -0.033703,0 -0.1665474,0.0167 -0.2933132,0.15693 -0.2931504,0.32431 v 0.32431 H 1.6302275 c -0.1798073,6.5e-4 -0.3249961,0.14705 -0.3243099,0.32686 -0.00293,1.4164 0,2.81683 0,4.23255 -0.1798063,-6.5e-4 -0.3261334,0.1445 -0.32685327,0.32431 v 1.30384 c 0,0.11444 0.0784349,0.33066 0.32683937,0.33066 v 1.94967 c -0.011223,-6.5e-4 -0.022475,-6.5e-4 -0.033703,0 -0.42407979,0.0314 -0.39135359,0.66371 0.033703,0.65117 h 6.1860495 c 0.443963,0.01 0.443963,-0.66114 0,-0.65117 v -1.95357 h 5.8598338 v 1.95349 c -0.01034,-6.5e-4 -0.02077,-6.5e-4 -0.03116,0 -0.423904,0.0299 -0.393667,0.66184 0.03116,0.65117 h 2.278435 c 0.443963,0.01 0.443963,-0.66114 0,-0.65117 v -1.95349 c 0.180803,6.5e-4 0.327542,-0.14605 0.326853,-0.32684 v -1.30296 c -6.53e-4,-0.17981 -0.147047,-0.325 -0.326853,-0.32433 h -0.649258 v -0.9761 h 0.324312 v 0.32431 c 0,0.43453 0.651799,0.43453 0.651799,0 v -0.65116 c -3.27e-4,-0.18006 -0.146799,-0.32564 -0.326853,-0.32495 h -0.649258 v -0.32685 c -6.51e-4,-0.17981 -0.147045,-0.32499 -0.326851,-0.32431 h -1.627274 c -0.179805,-6.6e-4 -0.326131,0.1445 -0.326851,0.32431 v 1.95475 H 10.037467 L 9.84161,290.4875 c 0.518639,0 1.037313,10e-6 1.556052,0 0.535581,-1e-5 0.978015,-0.44307 0.978015,-0.97865 v -3.25391 c 0,-0.71584 -0.586478,-1.30296 -1.302327,-1.30296 z m 0,0.6518 h 5.2105756 c 0.366364,0 0.651164,0.28479 0.651164,0.65116 v 2.27844 H 5.2135319 v -2.27844 c 0,-0.36637 0.2828904,-0.65116 0.6492555,-0.65116 z m 0.319221,0.32177 c -0.084362,0.002 -0.1643867,0.038 -0.2231998,0.0986 l -0.3243098,0.3243 c -0.3345283,0.30529 0.1509014,0.79408 0.4584849,0.46168 l 0.3268522,-0.32686 c 0.2111559,-0.20757 0.058136,-0.56638 -0.2378275,-0.55768 z m 1.3029644,0 c -0.084586,0.002 -0.164868,0.0379 -0.2238374,0.0986 l -1.3023268,1.30295 c -0.3328993,0.30713 0.1552884,0.7933 0.4610273,0.45913 l 1.3029643,-1.30296 c 0.211156,-0.20757 0.058136,-0.56638 -0.2378274,-0.55768 z m 6.1885932,0.9761 c -0.327217,-10e-4 -0.452185,0.42622 -0.175508,0.60093 0,0 0.05737,0.0377 0.113185,0.0935 0.0235,0.0235 0.01836,0.0111 0.02862,0.0287 -0.04053,0.0265 -0.09227,0.0594 -0.153886,0.12781 -0.06903,0.0767 -0.134176,0.21027 -0.134176,0.34594 0,0.27131 0.152473,0.42147 0.259447,0.52843 0.106971,0.10693 0.211119,0.17806 0.211119,0.17806 0.36037,0.23224 0.714459,-0.30108 0.360556,-0.54307 0,0 -0.05674,-0.0383 -0.112558,-0.0941 -0.02348,-0.0235 -0.01899,-0.0111 -0.02924,-0.0285 0.04053,-0.0265 0.09227,-0.0587 0.153886,-0.12719 0.06903,-0.0767 0.134814,-0.21026 0.134811,-0.34593 0,-0.27131 -0.15247,-0.42208 -0.259446,-0.52906 -0.106972,-0.10694 -0.211755,-0.17806 -0.211755,-0.17806 -0.05445,-0.0374 -0.118994,-0.0573 -0.185048,-0.0572 z m -10.0892133,0.002 h 0.9780161 c -0.012232,0.87742 0,1.74511 0,2.60529 0,0.53558 0.4398894,0.97864 0.975473,0.97865 v 0.97548 H 4.2355155 c 0,-0.75948 0,-1.51896 0,-2.27844 6.838e-4,-0.17981 -0.1445037,-0.32613 -0.3243096,-0.32685 H 3.5843527 c 3.19e-4,-0.65174 0,-1.30488 0,-1.95413 z m -1.627272,0.6518 h 0.975473 v 1.30233 h -0.975473 z m 3.2564512,1.62918 h 6.5109951 v 0.32431 c 0,0.18367 -0.143179,0.32685 -0.326852,0.32685 -1.9716079,-0.005 -3.9189567,0 -5.8598332,0 -0.1836763,0 -0.3243099,-0.14318 -0.3243099,-0.32685 z m -3.2564512,0.32431 c 0.5433719,6.5e-4 1.0871826,0 1.627272,0 v 0.65179 h -1.627272 z m 12.3727333,1.95378 H 13.3518 v -1.62727 h 0.978014 z m -8.1401739,-0.97548 c 0.3014201,0 0.6028598,0 0.9042539,0 l -0.1958601,0.97586 H 6.1896401 Z m 1.569404,0 h 1.4193336 l 0.194587,0.97611 -1.8097775,-6.5e-4 z m -5.8019634,0.32431 h 1.627272 v 0.65117 h -1.627272 z m -0.3268532,1.30233 c 4.5613465,3.3e-4 9.1143835,0 13.6750625,0 v 0.6518 H 1.6302275 Z m 0.3268532,1.3036 h 4.8837224 v 1.95349 H 1.9570807 Z m 12.0458823,0 h 0.978014 v 1.95349 h -0.978014 z m -10.12546,0.6509 c -0.4244662,0.031 -0.3917029,0.66409 0.033703,0.65117 h 0.9754727 c 0.4435835,0.01 0.4435835,-0.66074 0,-0.65117 H 3.9112059 c -0.011223,-6.5e-4 -0.022475,-6.5e-4 -0.033703,0 z"
       id="rect1432"
       inkscape:connector-curvature="0"
       sodipodi:nodetypes="csssccccsccssssscccccccccssssssssssccccccccccccccccccccccccccccccccccccccccsscccccccccccssccssscccscccccccccccccccccsccccccccccccccccccccccccccccsccsccccccccccccccccccccccccccccccccccccccccccccccc" />
  </g>
</svg>
