<?xml version="1.0" ?><svg id="Layer_3" style="enable-background:new 0 0 64 64;" version="1.0" viewBox="0 0 64 64" xml:space="preserve" xmlns="http://www.w3.org/2000/svg" xmlns:xlink="http://www.w3.org/1999/xlink"><g><path d="M55.19,3.11H8.81c-3.14,0-5.7,2.56-5.7,5.7v46.38c0,3.14,2.55,5.7,5.7,5.7h46.38c3.14,0,5.7-2.55,5.7-5.7V8.81   C60.89,5.67,58.33,3.11,55.19,3.11z M58.89,55.19c0,2.04-1.66,3.7-3.7,3.7H8.81c-2.04,0-3.7-1.66-3.7-3.7V8.81   c0-2.04,1.66-3.7,3.7-3.7h46.38c2.04,0,3.7,1.66,3.7,3.7V55.19z"/><path d="M16.83,11.72c-3.02,0-5.47,2.46-5.47,5.47s2.46,5.47,5.47,5.47c3.02,0,5.47-2.46,5.47-5.47S19.85,11.72,16.83,11.72z    M16.83,20.67c-1.92,0-3.47-1.56-3.47-3.47s1.56-3.47,3.47-3.47s3.47,1.56,3.47,3.47S18.74,20.67,16.83,20.67z"/><path d="M11.67,53.13h10.31V24.64H11.67V53.13z M13.67,26.64h6.31v24.49h-6.31V26.64z"/><path d="M48.05,25.67c-3.85-2.51-9.05-2.01-12.91,1l0.02-1.01c0-0.27-0.1-0.53-0.29-0.72c-0.19-0.19-0.45-0.3-0.71-0.3h-8.31   c-0.55,0-1,0.45-1,1v26.49c0,0.55,0.45,1,1,1h8.31c0.55,0,1-0.45,1-1V37.01c-0.02-1.98,1.58-3.63,3.55-3.66c0.02,0,0.04,0,0.06,0   c1.91,0,3.52,1.54,3.61,3.42l0.03,15.37c0,0.55,0.45,1,1,1h8.31c0.55,0,1-0.45,1-1v-16.8C52.74,34.89,52.79,28.77,48.05,25.67z    M50.73,35.29c0,0.01,0,0.02,0,0.03v15.81h-6.31l-0.03-14.41c-0.14-3.02-2.66-5.39-5.7-5.38c-3.07,0.05-5.54,2.6-5.51,5.67v14.12   h-6.31V26.64h6.29l-0.05,2.37c-0.01,0.42,0.25,0.8,0.64,0.95c0.39,0.15,0.84,0.04,1.12-0.28c3.2-3.66,8.52-4.7,12.11-2.35   C50.85,29.88,50.73,35.07,50.73,35.29z"/></g></svg>