<?xml version="1.0" ?><svg height="64" id="svg8" version="1.1" viewBox="0 0 16.933333 16.933334" width="64" xmlns="http://www.w3.org/2000/svg" xmlns:cc="http://creativecommons.org/ns#" xmlns:dc="http://purl.org/dc/elements/1.1/" xmlns:inkscape="http://www.inkscape.org/namespaces/inkscape" xmlns:rdf="http://www.w3.org/1999/02/22-rdf-syntax-ns#" xmlns:sodipodi="http://sodipodi.sourceforge.net/DTD/sodipodi-0.dtd" xmlns:svg="http://www.w3.org/2000/svg"><defs id="defs2"/><g id="layer1"><path d="M 30.007812 0 C 27.809199 0 26.005859 1.8033091 26.005859 4.0019531 L 26.005859 8.0019531 L 4.0019531 8.0019531 C 1.7682494 8.0019531 -2.9605947e-15 9.8052731 0 12.003906 L 0 49 C 0 51.219482 1.8033177 53 4.0019531 53 L 25.691406 53 L 23.240234 61.998047 L 19.998047 61.998047 C 19.448466 61.999948 19.003843 62.444556 19.001953 62.994141 C 18.999753 63.546598 19.445585 63.998106 19.998047 64 L 44.001953 64 C 44.554418 63.998103 45.000224 63.546598 44.998047 62.994141 C 44.99615 62.444556 44.55153 61.999937 44.001953 61.998047 L 40.759766 61.998047 L 38.306641 53 L 59.998047 53 C 62.196681 52.999996 64 51.230692 64 49 L 64 12.003906 C 64 9.8052731 62.249651 8.0019531 59.998047 8.0019531 L 53.876953 8.0019531 C 53.430716 6.2803368 51.901135 4.9980469 50.003906 4.9980469 L 48.001953 4.9980469 L 48.001953 4.0019531 C 48.001953 1.8033246 46.208407 -1.1842379e-15 44.009766 0 L 30.007812 0 z M 30.007812 2 L 44.009766 2 C 45.135037 2 46.001953 2.8766904 46.001953 4.0019531 L 46.001953 12.003906 C 46.001953 13.129174 45.135037 14.003906 44.009766 14.003906 L 30.988281 14.003906 C 30.725808 14.004125 30.474027 14.106745 30.287109 14.291016 L 28.007812 16.580078 L 28.007812 4.0019531 C 28.007812 2.8767055 28.882592 2 30.007812 2 z M 33.005859 7 C 32.453591 7 32.005859 7.447732 32.005859 8 C 32.005859 8.552268 32.453591 9 33.005859 9 C 33.558128 9 34.005859 8.552268 34.005859 8 C 34.005859 7.447732 33.558128 7 33.005859 7 z M 37.005859 7 C 36.453591 7 36.005859 7.447732 36.005859 8 C 36.005859 8.552268 36.453591 9 37.005859 9 C 37.558128 9 38.005859 8.552268 38.005859 8 C 38.005859 7.447732 37.558128 7 37.005859 7 z M 41.005859 7 C 40.453591 7 40.005859 7.447732 40.005859 8 C 40.005859 8.552268 40.453591 9 41.005859 9 C 41.558128 9 42.005859 8.552268 42.005859 8 C 42.005859 7.447732 41.558128 7 41.005859 7 z M 4.0019531 10.001953 L 26.005859 10.001953 L 26.005859 19.001953 C 26.006342 19.896305 27.09114 20.340286 27.71875 19.703125 L 31.410156 15.996094 L 32.005859 15.996094 L 32.005859 17 C 32.005859 19.198646 33.8092 21.001953 36.007812 21.001953 L 48.607422 21.001953 L 52.298828 24.707031 C 52.92948 25.334021 54.003396 24.887337 54.003906 23.998047 L 54.003906 10.001953 L 59.998047 10.001953 C 61.093456 10.001953 61.998047 10.878642 61.998047 12.003906 L 61.998047 43 L 25.998047 43 L 25.998047 38.498047 L 29.601562 35.800781 C 29.85414 35.610671 30.00177 35.312221 30 34.996094 L 30 30.996094 C 29.998055 30.446535 29.553464 30.001945 29.003906 30 L 25.001953 30 L 25.001953 28 C 25.001953 25.30909 23.218185 23.021559 20.771484 22.263672 C 21.534249 21.385711 21.998047 20.241972 21.998047 18.994141 C 21.998047 16.244648 19.749492 13.996094 17 13.996094 C 14.250508 13.996094 12.003906 16.244648 12.003906 18.994141 C 12.003906 20.241972 12.465751 21.385711 13.228516 22.263672 C 10.782662 23.022076 8.9980469 25.309695 8.9980469 28 L 8.9980469 30 L 4.9980469 30 C 4.4484888 30.0019 4.0038981 30.446535 4.0019531 30.996094 L 4.0019531 36 C 4.0025998 36.378505 4.2159878 36.723607 4.5546875 36.892578 L 8.0019531 38.615234 L 8.0019531 43 L 2 43 L 2 12.003906 C 2 10.878642 2.8890433 10.001953 4.0019531 10.001953 z M 17 15.996094 C 18.668643 15.996094 19.998047 17.325497 19.998047 18.994141 C 19.998047 20.662784 18.668643 21.990234 17 21.990234 C 15.331357 21.990234 14.003906 20.662784 14.003906 18.994141 C 14.003906 17.325497 15.331357 15.996094 17 15.996094 z M 40.921875 23.003906 C 40.737547 23.018798 40.576311 23.078186 40.494141 23.134766 C 40.187583 23.314357 39.999735 23.642747 40 23.998047 L 40 32 C 40.000147 32.76517 40.825596 33.244834 41.492188 32.869141 L 48.496094 28.871094 C 49.174372 28.488469 49.174372 27.511531 48.496094 27.128906 L 41.492188 23.134766 C 41.31368 23.018583 41.10621 22.989005 40.921875 23.003906 z M 15 23.998047 L 19.001953 23.998047 C 21.235181 23.998047 23.001953 25.766773 23.001953 28 L 23.001953 30 L 10.998047 30 L 10.998047 28 C 10.998047 25.766773 12.766773 23.998047 15 23.998047 z M 6.0019531 32 L 28 32 L 28 34.501953 L 25.998047 35.998047 L 25.998047 34.996094 C 25.996147 34.446513 25.551533 34.001891 25.001953 34 C 24.449492 33.9978 23.999946 34.443629 23.998047 34.996094 L 23.998047 43 L 10.001953 43 L 10.001953 34.996094 C 10.000053 34.443629 9.5505076 33.997822 8.9980469 34 C 8.4484665 34.0019 8.0038436 34.446513 8.0019531 34.996094 L 8.0019531 36.380859 L 6.0019531 35.378906 L 6.0019531 32 z M 50.992188 35.005859 C 49.625426 35.012285 48.578719 35.850957 48.169922 36.988281 L 32.994141 36.988281 C 32.441678 36.990182 31.99587 37.439728 31.998047 37.992188 C 31.999947 38.541769 32.444559 38.986391 32.994141 38.988281 L 48.166016 38.988281 C 48.580498 40.15343 49.699786 40.996094 51 40.996094 C 52.300112 40.996094 53.417474 40.15329 53.832031 38.988281 L 59.001953 38.988281 C 59.551534 38.986384 59.996157 38.541769 59.998047 37.992188 C 60.00025 37.439728 59.554414 36.990182 59.001953 36.988281 L 53.828125 36.988281 C 53.410979 35.828023 52.327948 35.005859 50.992188 35.005859 z M 50.998047 36.998047 C 51.565807 36.998047 52.003906 37.424425 52.003906 37.992188 C 52.003906 38.538189 51.565807 38.998047 50.998047 38.998047 C 50.44918 38.998047 49.988281 38.543152 49.988281 37.992188 C 49.988281 37.444687 50.430279 36.998047 50.998047 36.998047 z " id="path846" style="opacity:1;fill:#000000;fill-opacity:1;stroke:none;stroke-width:2;stroke-linecap:round;stroke-linejoin:round;stroke-miterlimit:4;stroke-dasharray:none;stroke-dashoffset:0;stroke-opacity:1" transform="scale(0.26458334)"/></g></svg>